# xmcd
#
# Track frame offsets:
#	150
#	17842
#	40534
#	55194
#	72594
#	90707
#	105232
#	127082
#	149100
#	178152
#	201953
#	233153
#
# Disc length: 3527 seconds
#
# Revision: 1
# Processed by: cddbd v1.5.1PL2 Copyright (c) Steve Scherf et al.
# Submitted via: audiograbber 1.83.01
#
DISCID=ae0dc50c
DTITLE=Elton John and Billy Joel - Friends at the Piano
DYEAR=1900
DGENRE=
TTITLE0=Your Song
TTITLE1=Piano Man
TTITLE2=Goodbye Yellow Brick Road
TTITLE3=Honesty
TTITLE4=Can You Feel The Love Tonight
TTITLE5=She's Always a Woman
TTITLE6=Rocket Man
TTITLE7=Stranger
TTITLE8=Don't Let the Sun Go Down On Me
TTITLE9=An Innocent Man
TTITLE10=Song For Guy
TTITLE11=Scenes From An Italian Restaurant
EXTD=
EXTT0=
EXTT1=
EXTT2=
EXTT3=
EXTT4=
EXTT5=
EXTT6=
EXTT7=
EXTT8=
EXTT9=
EXTT10=
EXTT11=
PLAYORDER=
